<?xml version="1.0" encoding="UTF-8"?>
<svg id="Layer_2" data-name="Layer 2" xmlns="http://www.w3.org/2000/svg" viewBox="0 0 88.78 80.42">
  <defs>
    <style>
      .cls-1 {
        fill: #ffb101;
      }

      .cls-2 {
        fill: #ffd540;
      }
    </style>
  </defs>
  <g id="Text">
    <g>
      <path class="cls-1" d="M62.72,78.67c-.25,0-.49-.04-.72-.13l-19.69-7.2-20.26,4.85h-.28c-1.01,0-1.86-.71-2.03-1.7l-3.46-20.18L2.3,38.7c-.39-.44-.59-1.02-.54-1.6s.33-1.13,.77-1.5l15.88-13.11L24.66,3.18c.27-.85,1.06-1.43,1.96-1.43,.23,0,.46,.04,.67,.11l19.72,6.83,19.88-4.56h.27c1.01,0,1.87,.72,2.04,1.71l3.36,19.88,13.95,15.78c.37,.42,.56,.98,.51,1.54-.05,.56-.32,1.08-.75,1.43l-15.34,12.56-6.25,20.18c-.27,.87-1.06,1.45-1.97,1.45Z"/>
      <path d="M26.62,3.5s.07,0,.1,.02l20.11,6.97s.07,.02,.1,.02c.02,0,.05,0,.07,0l20.09-4.61s.05,0,.07,0c.15,0,.28,.11,.31,.26l3.43,20.28c0,.06,.04,.11,.07,.16l14.22,16.09c.12,.13,.1,.34-.04,.45l-15.67,12.83s-.08,.09-.1,.15l-6.37,20.59c-.04,.14-.17,.22-.3,.22-.04,0-.07,0-.11-.02l-20.1-7.35s-.07-.02-.11-.02c-.02,0-.05,0-.07,0l-20.48,4.9s-.05,0-.07,0c-.15,0-.28-.11-.31-.26l-3.53-20.58c0-.06-.04-.11-.08-.16L3.6,37.53c-.15-.17-.13-.44,.04-.59l16.2-13.37s.08-.09,.1-.15L26.32,3.72c.04-.13,.17-.22,.3-.22m0-3.5c-1.66,0-3.12,1.06-3.63,2.64l-6.09,18.82L1.42,34.24c-.82,.67-1.33,1.66-1.41,2.72-.08,1.06,.28,2.11,.99,2.9l13.65,15.23,3.37,19.68c.32,1.84,1.9,3.17,3.76,3.17,.3,0,.6-.04,.89-.11l19.54-4.67,19.2,7.02c.42,.15,.86,.23,1.31,.23,1.68,0,3.15-1.08,3.64-2.69l6.09-19.68,14.93-12.23c.8-.65,1.3-1.62,1.39-2.65,.08-1.03-.26-2.06-.94-2.83l-13.62-15.41-3.28-19.39c-.31-1.84-1.9-3.18-3.76-3.18-.28,0-.57,.03-.84,.09l-19.2,4.4L27.87,.21c-.4-.14-.82-.21-1.25-.21h0Z"/>
    </g>
    <circle class="cls-2" cx="44.46" cy="41.01" r="25.75"/>
    <circle cx="44.62" cy="39.11" r="25.75"/>
  </g>
</svg>