<?xml version="1.0" encoding="UTF-8"?>
<svg id="Layer_2" data-name="Layer 2" xmlns="http://www.w3.org/2000/svg" viewBox="0 0 836.16 80">
  <defs>
    <style>
      .cls-1 {
        fill: #2e0014;
      }

      .cls-2 {
        fill: #380017;
      }
    </style>
  </defs>
  <g id="_레이어_3" data-name="레이어 3">
    <path d="M824.58,80H4.58c-2.76,0-4.8-2.24-4.56-5L6.14,5c.24-2.76,2.68-5,5.44-5H831.58c2.76,0,4.8,2.24,4.56,5l-6.12,70c-.24,2.76-2.68,5-5.44,5Z"/>
    <path class="cls-1" d="M820.02,75H10.02c-2.76,0-4.8-2.24-4.56-5L10.71,10c.24-2.76,2.68-5,5.44-5H826.14c2.76,0,4.8,2.24,4.56,5l-5.25,60c-.24,2.76-2.68,5-5.44,5Z"/>
    <path class="cls-2" d="M819.92,74.92H9.92c-2.76,0-4.8-2.24-4.56-5l1.92-22H827.28l-1.92,22c-.24,2.76-2.68,5-5.44,5Z"/>
  </g>
</svg>