<?xml version="1.0" encoding="UTF-8"?>
<svg id="Layer_2" data-name="Layer 2" xmlns="http://www.w3.org/2000/svg" viewBox="0 0 134.78 134.74">
  <defs>
    <style>
      .cls-1 {
        fill: #ff931e;
      }

      .cls-2 {
        fill: #faf74f;
      }
    </style>
  </defs>
  <g id="Layer_2-2" data-name="Layer 2">
    <g>
      <path class="cls-2" d="M101.15,20.78c-1.25,0-2.49-.34-3.59-.99-9.11-5.42-19.54-8.29-30.17-8.29s-21.05,2.86-30.16,8.28c-1.1,.65-2.34,.99-3.59,.99-1.89,0-3.56-.78-4.58-2.15-.78-1.04-1.06-2.38-.79-3.79,.36-1.82,1.58-3.47,3.34-4.51C42.42,3.9,54.79,.5,67.39,.5s24.97,3.4,35.78,9.83c1.76,1.05,2.98,2.69,3.34,4.51,.28,1.4,0,2.75-.79,3.79-1.03,1.36-2.7,2.15-4.58,2.15h0Z"/>
      <path class="cls-1" d="M67.39,1c12.3,0,24.59,3.25,35.53,9.76,3.05,1.81,4.06,5.38,2.41,7.57-.98,1.3-2.54,1.95-4.18,1.95-1.13,0-2.3-.31-3.34-.92-9.36-5.57-19.89-8.36-30.42-8.36s-21.06,2.79-30.42,8.36c-1.04,.61-2.2,.92-3.34,.92-1.64,0-3.2-.65-4.18-1.95-1.65-2.19-.64-5.76,2.41-7.57C42.8,4.25,55.09,1,67.39,1m0-1c-12.69,0-25.15,3.42-36.04,9.9-1.89,1.12-3.19,2.89-3.58,4.85-.3,1.54,0,3.03,.88,4.18,1.12,1.49,2.94,2.35,4.98,2.35,1.34,0,2.67-.37,3.84-1.06,9.04-5.38,19.38-8.22,29.91-8.22s20.87,2.84,29.91,8.21c1.18,.69,2.5,1.06,3.85,1.06,2.04,0,3.86-.86,4.98-2.35,.87-1.15,1.18-2.64,.88-4.18-.39-1.96-1.69-3.73-3.58-4.85C92.54,3.42,80.08,0,67.39,0h0Z"/>
    </g>
    <g>
      <path class="cls-2" d="M118.88,106.6c-1.02,0-1.97-.31-2.74-.89-2.32-1.75-2.83-5.34-1.16-8.17,11.07-18.61,11.07-41.72,0-60.33-1.67-2.83-1.17-6.42,1.16-8.17,.77-.58,1.72-.89,2.74-.89,2.17,0,4.29,1.32,5.56,3.44,13.13,22.07,13.13,49.5,0,71.57-1.26,2.12-3.39,3.44-5.56,3.44h0Z"/>
      <path class="cls-1" d="M118.88,28.64c1.87,0,3.9,1.13,5.13,3.2,13.01,21.87,13.01,49.18,0,71.06-1.23,2.07-3.26,3.2-5.13,3.2-.89,0-1.74-.26-2.44-.79-2.2-1.66-2.53-4.98-1.03-7.52,11.14-18.73,11.14-42.11,0-60.84-1.5-2.54-1.17-5.86,1.03-7.52,.71-.53,1.56-.79,2.44-.79m0-1c-1.13,0-2.19,.34-3.05,.99-2.52,1.9-3.09,5.78-1.29,8.83,10.97,18.45,10.97,41.37,0,59.82-1.8,3.05-1.24,6.93,1.29,8.83,.86,.65,1.91,.99,3.04,.99,2.34,0,4.63-1.41,5.99-3.69,13.22-22.23,13.22-49.85,0-72.08-1.35-2.27-3.64-3.69-5.99-3.69h0Z"/>
    </g>
    <g>
      <path class="cls-2" d="M15.9,106.6c-2.17,0-4.29-1.32-5.56-3.44C-2.78,81.08-2.78,53.66,10.35,31.59c1.26-2.12,3.39-3.44,5.56-3.44,1.02,0,1.97,.31,2.74,.89,2.32,1.75,2.83,5.34,1.16,8.17-11.07,18.61-11.07,41.72,0,60.33,1.68,2.83,1.17,6.42-1.16,8.17-.77,.58-1.72,.89-2.74,.89h0Z"/>
      <path class="cls-1" d="M15.9,28.64c.89,0,1.74,.26,2.44,.79,2.2,1.66,2.53,4.98,1.03,7.52-11.14,18.73-11.14,42.11,0,60.84,1.5,2.54,1.17,5.86-1.03,7.52-.71,.53-1.56,.79-2.44,.79-1.87,0-3.9-1.13-5.13-3.2C-2.23,81.03-2.23,53.72,10.78,31.84c1.23-2.07,3.26-3.2,5.13-3.2m0-1c-2.34,0-4.64,1.41-5.99,3.69-13.22,22.23-13.22,49.85,0,72.08,1.35,2.27,3.64,3.69,5.98,3.69,1.13,0,2.19-.34,3.05-.99,2.52-1.9,3.09-5.78,1.29-8.83-10.97-18.45-10.97-41.37,0-59.82,1.8-3.05,1.24-6.93-1.29-8.83-.86-.65-1.91-.99-3.04-.99h0Z"/>
    </g>
    <g>
      <path class="cls-2" d="M67.39,134.24c-12.6,0-24.97-3.4-35.78-9.83-1.77-1.05-2.98-2.69-3.34-4.52-.28-1.4,0-2.75,.79-3.78,1.03-1.36,2.7-2.15,4.58-2.15,1.25,0,2.49,.34,3.59,.99,9.11,5.42,19.54,8.29,30.17,8.29s21.05-2.86,30.16-8.28c1.1-.65,2.34-.99,3.59-.99,1.89,0,3.56,.78,4.58,2.15,.78,1.04,1.06,2.38,.79,3.79-.36,1.82-1.58,3.47-3.34,4.51-10.81,6.43-23.18,9.83-35.78,9.83Z"/>
      <path class="cls-1" d="M101.15,114.47c1.64,0,3.2,.65,4.18,1.95,1.65,2.19,.64,5.76-2.41,7.57-10.94,6.51-23.23,9.76-35.53,9.76s-24.59-3.25-35.53-9.76c-3.05-1.81-4.06-5.38-2.41-7.57,.98-1.3,2.55-1.95,4.19-1.95,1.13,0,2.3,.31,3.33,.92,9.36,5.57,19.89,8.36,30.42,8.36s21.06-2.79,30.42-8.36c1.04-.61,2.2-.92,3.33-.92m0-1c-1.34,0-2.67,.37-3.84,1.06-9.04,5.38-19.38,8.22-29.91,8.22s-20.87-2.84-29.91-8.21c-1.17-.69-2.5-1.06-3.85-1.06-2.04,0-3.86,.85-4.98,2.35-.87,1.15-1.18,2.64-.88,4.18,.39,1.96,1.69,3.73,3.58,4.85,10.89,6.48,23.35,9.9,36.04,9.9s25.15-3.42,36.04-9.9c1.89-1.12,3.19-2.89,3.58-4.85,.3-1.54,0-3.03-.88-4.18-1.12-1.49-2.94-2.35-4.98-2.35h0Z"/>
    </g>
  </g>
</svg>