<?xml version="1.0" encoding="UTF-8"?>
<svg id="Layer_2" data-name="Layer 2" xmlns="http://www.w3.org/2000/svg" viewBox="0 0 1656.91 542.27">
  <defs>
    <style>
      .cls-1 {
        fill: #fff;
      }

      .cls-2 {
        stroke: #000;
        stroke-miterlimit: 10;
        stroke-width: 39px;
      }
    </style>
  </defs>
  <g id="Text">
    <g>
      <g>
        <polygon points="834.08 155.39 982.75 142.97 1009.77 219.13 1024.51 138.49 1153.52 128.18 1181.73 207.3 1196.68 125.73 1361.92 113.8 1301.03 494.33 1140.13 506.61 1113.47 439.9 1099.53 510 961.49 521.57 834.08 155.39"/>
        <path d="M1338.78,135.02l-54.57,341.04-131.28,10.01-45.74-114.49-23.91,120.2-108.33,9.08-114.18-328.15,108.64-9.08,46.41,130.83,25.19-137.75,99.17-7.93,47.63,133.56,25.34-138.28,125.64-9.08m46.29-42.45l-49.1,3.55-125.64,9.08-30.11,2.18-4.55,24.86-8.8-24.68-29.8,2.38-99.17,7.93-29.86,2.39-4.3,23.52-7.62-21.49-29.95,2.5-108.64,9.08-50.11,4.19,16.53,47.49,114.18,328.15,9.94,28.57,30.15-2.53,108.33-9.08,29.26-2.45,3.98-20,7.57,18.94,28.56-2.18,131.28-10.01,30.68-2.34,4.86-30.38,54.57-341.04,7.78-48.61h0Z"/>
      </g>
      <g>
        <path class="cls-1" d="M48.58,200.22l-26.85,2.46L35.75,61.37l181.69-19.73c4.54-.52,9.06-.78,13.45-.78,23.01,0,43.83,7.04,61.88,20.94,21.43,16.51,33.49,38.93,36.86,68.56,3.51,30.83-3.63,57.87-20.75,79.51,11.79,8.46,20.69,17.17,26.56,26.03,12.07,18.18,18.56,36.77,20.43,58.51,2.76,32.07-5.06,57.76-24.59,80.87-18.33,21.68-43.62,34.5-75.17,38.11l-179.56,21.96-27.96-235.12Zm146.58,108.76l5.43-.55c4.98-.58,7.6-1.69,8.33-2.47,.81-.87,1.83-3.85,2.04-9.4,.06-1.67-.47-3.09-1.58-4.25-1.95-2.02-5.58-3.15-10.23-3.16l-5.69,.4,1.69,19.43Zm-15.3-128.36c1.86-.34,3.68-1.16,4.31-1.72,.01-.11,.03-.28,.03-.53,0-1.37-.08-2.29-.17-2.88-.79-.26-2.23-.61-4.57-.8l.4,5.92Z"/>
        <path d="M230.89,60.36c18.69,0,35.35,5.63,49.99,16.89,17.51,13.49,26.64,31.26,29.38,55.31,3.82,33.49-7.05,61.08-32.6,80.79,19.42,10.63,34.05,22.03,41.54,33.32,8.53,12.86,15.42,28.21,17.24,49.4,2.26,26.31-3.74,47.31-20.05,66.61-15.31,18.1-36.39,28.35-62.57,31.33l-160.22,19.6-27.89-234.53-22.24,2.03,10.12-102.07,166.01-18.03c3.84-.44,7.61-.66,11.29-.66m-69.17,141.33l19.24-1.53c7.74-.77,22.74-5.77,22.74-21.77,0-12.04-4-23-26.98-23.31l-18.02,1.31,3.02,45.3m15.72,128.68l25.24-2.53c18.29-2.08,27.02-10.45,27.77-30.53,.53-14.24-10.52-27.63-31.39-27.63-.21,0-.43,0-.65,0l-26.09,1.83,5.11,58.87M230.9,21.36v0h0c-5.11,0-10.35,.3-15.6,.9L49.38,40.27l-31.47,3.42-3.12,31.5L4.66,177.26,0,224.25l31.46-2.88,23.41,196.85,4.62,38.86,38.84-4.75,160.08-19.58c17.58-2.02,33.77-6.66,48.12-13.8,15.28-7.6,28.61-18.05,39.63-31.08,22.79-26.95,32.31-58.07,29.13-95.13-2.13-24.78-9.85-46.9-23.61-67.62-4.36-6.57-9.97-12.99-16.8-19.25,2.36-4.26,4.45-8.66,6.27-13.21,7.85-19.57,10.49-41.27,7.84-64.5-1.95-17.14-6.33-31.98-13.4-45.39-7.4-14.05-17.81-26.3-30.93-36.41-21.56-16.59-46.38-25-73.78-25h0Z"/>
      </g>
      <g>
        <path class="cls-1" d="M474.76,406.14l-10.57-27.28-1.13,25.91-138.64-4.84,9.48-237.74-27.61-.92L341.73,24.3l159.71,5.54c39.33,1.37,71.56,16.27,95.78,44.27,25.1,28.65,35.67,59.21,34.28,99.08-1.68,48.01-18.86,85.72-51.12,112.34l58.17,126.33-163.8-5.72Zm1.64-217.17c.49,.02,.97,.03,1.44,.03,14,0,14.24-6.68,14.38-10.67,.15-4.24-.73-7.36-2.61-9.26-2.3-2.32-6.77-3.71-12.58-3.91l-4.21-.15-.75,23.82,4.35,.15Z"/>
        <path d="M356.69,44.33l144.08,5c33.86,1.18,61.12,13.71,81.75,37.58,20.94,23.88,30.77,49.09,29.5,85.61-1.67,47.92-20.34,83.5-55.99,106.74l51.58,112.01-119.31-4.17-39.53-102.03-4.35,99.53-99.74-3.48,9.48-237.76-22.9-.76,25.43-98.26m121.15,164.17c21.34,0,33.24-11.64,33.87-29.49,.68-19.43-11.33-32.55-34-33.34l-23.77-.83-1.98,62.8,23.77,.83c.72,.02,1.43,.04,2.12,.04M326.77,4.26l-7.84,30.29-25.43,98.26-12.2,47.13,32.32,1.08-7.91,198.54-1.56,39.16,39.17,1.37,99.74,3.48,17.79,.62,.38,.98,25.71,.9,119.31,4.17,63.26,2.21-26.48-57.5-38.98-84.64c10.94-10.96,20.05-23.35,27.24-37.06,12.03-22.93,18.65-49.64,19.69-79.38,.8-23.04-2.02-43.3-8.64-61.95-6.38-17.97-16.33-34.53-30.41-50.62-13.92-16.08-30.42-28.57-49.04-37.13-18.28-8.4-38.72-13.05-60.76-13.82l-144.09-5-31.27-1.08h0Z"/>
      </g>
      <g>
        <path class="cls-1" d="M637.91,168.04l-30.28,1.28,21.78-134.56,224.83-14.34,124.04,374.69-156.23,9.91-11.55-47.45-60.88,3.54-9.22,48.46-154.09,10.93,51.6-252.46Zm132.83,64.62l1.18-.07-.72-2.25-.46,2.31Z"/>
        <path d="M840.45,40.84l111.37,336.41-114.7,7.27-11.53-47.36-92.3,5.36-9.25,48.66-113.48,8.05,51.45-251.73-31.31,1.33,15.47-95.6,194.29-12.4m-93.71,212.74l51.42-2.96-31.46-98.24-19.97,101.19M868.01,0l-30.05,1.92-194.29,12.4-31.05,1.98-4.97,30.71-15.47,95.6-7.64,47.22,29.25-1.24-41.46,202.84-10.29,50.35,51.26-3.64,113.48-8.05,29.94-2.12,5.61-29.49,3.57-18.78,29.47-1.71,3.84,15.76,7.73,31.77,32.63-2.07,114.7-7.27,50.44-3.2-15.88-47.98L877.48,28.58l-9.46-28.58h0Z"/>
      </g>
      <g>
        <polygon class="cls-1" points="859.22 68.97 1025.63 57.05 1052.58 133.03 1067.33 52.4 1196.33 42.08 1224.55 121.2 1239.5 39.64 1404.75 27.7 1343.84 407.23 1183.47 419.56 1155.67 343.14 1139.86 424.11 979.98 435.29 859.22 68.97"/>
        <path d="M1381.59,48.92l-54.57,340.04-130.28,10.01-46.74-128.49-26.41,135.2-129.83,9.08-108.18-328.15,126.64-9.08,46.41,130.83,25.19-137.75,99.17-7.93,47.63,133.56,25.34-138.28,125.64-9.08m46.31-42.45l-49.12,3.55-125.64,9.08-30.11,2.18-4.55,24.85-8.8-24.68-29.8,2.38-99.17,7.93-29.86,2.39-4.3,23.52-7.5-21.14-29.62,2.12-126.64,9.08-49.92,3.58,15.67,47.53,108.18,328.15,9.5,28.81,30.26-2.12,129.83-9.08,29.82-2.09,5.22-26.74,8.86,24.35,29.52-2.27,130.28-10.01,30.65-2.36,4.87-30.35,54.57-340.04,7.8-48.63h0Z"/>
      </g>
      <g>
        <polygon class="cls-1" points="1368.84 417.67 1385.82 181.91 1363.37 180.84 1382.92 43.98 1535.61 51.95 1518.62 283.84 1630.81 289.08 1586.79 430.77 1368.84 417.67"/>
        <path d="M1399.7,64.38l115,6-17,232,107,5-32,103-183-11,17-236-21-1,14-98m-33.57-40.8l-5.04,35.29-14,98-6.06,42.43,23.9,1.14-14.13,196.14-2.84,39.36,39.4,2.37,183,11,30.51,1.83,9.07-29.19,32-103,14.97-48.17-50.39-2.35-67-3.13,14.07-192.06,2.91-39.72-39.77-2.08-115-6-35.6-1.86h0Z"/>
      </g>
      <path class="cls-1" d="M1327.02,388.96l-130.28,10.01-46.74-128.49-26.41,135.2-129.83,9.08-108.18-328.15,126.64-9.08,46.41,130.83,25.19-137.75,99.17-7.93,47.63,133.56,25.34-138.28,125.64-9.08-54.57,340.04Z"/>
      <g>
        <polygon points="659.21 274.38 633.98 275.42 651.89 148.59 844.71 136.05 950.47 484.36 824.83 494.1 814.4 452.88 758.29 453.21 748.07 496.91 618.43 506.79 659.21 274.38"/>
        <path d="M830.54,156.51l94.21,310.28-85.05,6.59-10.14-40.09-86.75,.51-10.47,44.76-90.36,6.88,40.62-231.54-26.04,1.08,12.42-87.95,161.56-10.51m-76.96,195.45l42.76-2.48-26.63-90.6-16.14,93.08m105.29-236.37l-30.86,2.01-161.56,10.51-31.65,2.06-4.44,31.41-12.42,87.95-6.55,46.35,24.42-1.01-32.25,183.84-8.67,49.44,50.05-3.81,90.36-6.88,28.5-2.17,6.51-27.83,3.47-14.82,25.46-.15,2.65,10.48,8.06,31.86,32.77-2.54,85.05-6.59,48.41-3.75-14.11-46.46-94.21-310.28-8.99-29.59h0Z"/>
      </g>
      <path class="cls-2" d="M350.55,317.98c19.42,10.63,34.05,22.03,41.54,33.32,8.53,12.86,15.42,28.21,17.24,49.4,2.26,26.31-3.74,47.31-20.05,66.61-15.31,18.11-36.39,30.35-62.57,33.34l-162.52,19.25-92.5-78"/>
      <path class="cls-1" d="M316.86,363.18c-15.31,18.11-36.39,28.35-62.57,31.34l-160.22,19.6-27.89-234.53-22.24,2.03,10.12-102.07,166.01-18.03c23.34-2.66,43.76,2.76,61.28,16.24,17.51,13.49,26.64,31.26,29.38,55.31,3.82,33.49-7.05,61.08-32.6,80.79,19.42,10.63,34.05,22.03,41.54,33.32,8.53,12.86,15.42,28.21,17.24,49.4,2.26,26.31-3.74,47.31-20.05,66.61ZM177.2,155.56l-18.03,1.31,3.02,45.3,19.24-1.53c7.74-.77,22.74-5.77,22.74-21.77,0-12.04-4-23-26.97-23.31Zm21.69,114.59l-26.09,1.83,5.11,58.87,25.24-2.53c18.29-2.08,27.02-10.45,27.77-30.54,.54-14.38-10.75-27.91-32.04-27.63Z"/>
      <path class="cls-1" d="M487.85,387.42l-39.53-102.03-4.35,99.53-99.74-3.48,9.48-237.76-22.9-.76,25.43-98.26,144.08,5c33.86,1.18,61.12,13.71,81.75,37.58,20.94,23.88,30.77,49.09,29.5,85.61-1.67,47.92-20.34,83.5-55.99,106.74l51.58,112.01-119.31-4.17Zm-10.6-241.44l-23.77-.83-1.98,62.8,23.77,.83c22.68,.79,35.34-11.02,35.99-29.46,.68-19.43-11.33-32.55-34-33.34Z"/>
      <path class="cls-1" d="M837.06,385.02l-11.53-47.36-92.3,5.36-9.25,48.66-113.48,8.05,51.45-251.73-31.31,1.33,15.47-95.6,194.29-12.4,111.37,336.41-114.7,7.27Zm-70.41-232.14l-19.97,101.19,51.42-2.96-31.46-98.24Z"/>
      <polygon points="609.7 517.38 354.03 506.28 364.52 407.34 613.7 418.38 609.7 517.38"/>
      <path d="M1427.98,429.92l172.9,21.23-97.9,86.77-219.1-12.77,1-111"/>
    </g>
  </g>
</svg>