<?xml version="1.0" encoding="UTF-8"?>
<svg id="Layer_2" data-name="Layer 2" xmlns="http://www.w3.org/2000/svg" viewBox="0 0 241.33 241.33">
  <defs>
    <style>
      .cls-1 {
        fill: #fff;
      }

      .cls-2 {
        opacity: .5;
      }
    </style>
  </defs>
  <g id="Circle">
    <g class="cls-2">
      <path class="cls-1" d="M113.55,235.33c-5.7,0-10.36-4.63-10.38-10.33l-.08-12.49c-27.42-5.2-50.92-22.27-64.33-46.74l-11.92,3.78c-1.02,.32-2.07,.49-3.14,.49-5.14,0-9.45-3.69-10.25-8.77l-7.3-46.09c-.47-3.01,.38-6.05,2.35-8.36,1.96-2.3,4.83-3.63,7.86-3.64l12.48-.08c5.21-27.42,22.28-50.92,46.75-64.34l-3.79-11.93c-.92-2.86-.54-5.99,1.05-8.57,1.59-2.59,4.23-4.34,7.24-4.82l46.09-7.3c.54-.09,1.09-.13,1.63-.13,5.7,0,10.35,4.64,10.38,10.33l.08,12.49c27.42,5.2,50.92,22.27,64.34,46.74l11.92-3.78c1.03-.32,2.08-.49,3.14-.49,5.14,0,9.45,3.69,10.26,8.77l7.3,46.09c.47,3-.38,6.05-2.35,8.36-1.96,2.31-4.83,3.64-7.85,3.65l-12.49,.08c-5.2,27.42-22.27,50.92-46.74,64.35l3.78,11.93c.92,2.86,.54,5.99-1.05,8.57-1.59,2.59-4.23,4.35-7.24,4.82l-46.08,7.3c-.54,.09-1.09,.13-1.64,.13Z"/>
      <path d="M127.78,12c2.36,0,4.37,1.91,4.38,4.35l.12,17.58c29.16,3.87,54.59,22.35,67.29,48.88l16.75-5.32c.44-.14,.89-.21,1.33-.21,2.09,0,3.99,1.51,4.33,3.71l7.3,46.09c.42,2.66-1.62,5.06-4.3,5.07l-17.58,.12c-3.87,29.16-22.35,54.59-48.88,67.29l5.31,16.76c.82,2.55-.84,5.23-3.5,5.65l-46.08,7.3c-.23,.04-.47,.05-.7,.05-2.37,0-4.37-1.91-4.38-4.35l-.12-17.58c-29.15-3.87-54.59-22.35-67.28-48.88l-16.76,5.32c-.44,.14-.89,.21-1.32,.21-2.09,0-3.98-1.51-4.33-3.71l-7.3-46.09c-.42-2.66,1.61-5.06,4.3-5.07l17.57-.12c3.88-29.16,22.36-54.59,48.89-67.29l-5.32-16.76c-.82-2.55,.84-5.23,3.5-5.65l46.09-7.3c.23-.04,.47-.05,.69-.05m-41.46,68.96c.95-.82,1.93-1.61,2.94-2.37,1.01-.75,2.05-1.47,3.11-2.16-1.07,.68-2.11,1.4-3.11,2.16-1.01,.75-1.99,1.53-2.94,2.37m81.28,63.23c.52-1.01,1-2.05,1.44-3.1-.45,1.05-.93,2.08-1.44,3.1m-91.83,3.69c-.87-1.44-1.68-2.93-2.42-4.46,.73,1.53,1.54,3.02,2.42,4.46m36.66,24.64c-1.09-.18-2.17-.38-3.23-.62,1.07,.25,2.14,.45,3.23,.62M127.78,0c-.86,0-1.72,.07-2.57,.2l-46.09,7.3c-4.73,.75-8.89,3.52-11.4,7.6-2.51,4.07-3.11,9.02-1.64,13.57l2.32,7.31c-10.97,6.78-20.6,15.7-28.22,26.19-7.62,10.49-13.13,22.41-16.19,34.94l-7.71,.05c-4.75,.02-9.27,2.11-12.36,5.75-3.1,3.64-4.45,8.45-3.71,13.19l7.3,46.1c1.27,8.01,8.07,13.83,16.18,13.83,1.68,0,3.35-.26,4.96-.77l7.35-2.33c6.78,10.97,15.7,20.6,26.19,28.22,10.49,7.62,22.41,13.13,34.93,16.18l.05,7.71c.03,8.96,7.38,16.27,16.38,16.27,.86,0,1.72-.07,2.57-.2l46.09-7.3c4.73-.75,8.89-3.52,11.4-7.6,2.5-4.06,3.1-9,1.65-13.54l-2.33-7.35c10.97-6.78,20.6-15.7,28.23-26.19,7.62-10.49,13.13-22.41,16.18-34.94l7.71-.05c4.74-.02,9.26-2.12,12.36-5.76,3.1-3.65,4.46-8.45,3.71-13.18l-7.3-46.1c-1.27-8.01-8.08-13.83-16.19-13.83-1.68,0-3.34,.26-4.95,.77l-7.36,2.34c-6.78-10.97-15.7-20.6-26.19-28.22-10.49-7.62-22.41-13.13-34.94-16.18l-.05-7.71c-.03-8.96-7.38-16.27-16.38-16.27h0Z"/>
    </g>
    <path class="cls-2" d="M120.6,68.29c-28.99,0-52.5,23.51-52.5,52.5s23.51,52.5,52.5,52.5,52.5-23.51,52.5-52.5-23.51-52.5-52.5-52.5Zm-.72,80.48c-15.19,0-27.5-12.31-27.5-27.5s12.31-27.5,27.5-27.5,27.5,12.31,27.5,27.5-12.31,27.5-27.5,27.5Z"/>
  </g>
</svg>