<?xml version="1.0" encoding="UTF-8"?>
<svg id="Layer_2" data-name="Layer 2" xmlns="http://www.w3.org/2000/svg" viewBox="0 0 241.33 241.33">
  <defs>
    <style>
      .cls-1 {
        fill: #fff;
      }
    </style>
  </defs>
  <g id="Circle">
    <g>
      <circle class="cls-1" cx="120.67" cy="120.67" r="58.5"/>
      <path d="M120.67,68.17c28.99,0,52.5,23.51,52.5,52.5s-23.51,52.5-52.5,52.5-52.5-23.51-52.5-52.5,23.51-52.5,52.5-52.5m0-12c-35.57,0-64.5,28.93-64.5,64.5s28.93,64.5,64.5,64.5,64.5-28.93,64.5-64.5-28.93-64.5-64.5-64.5h0Z"/>
    </g>
    <circle cx="120.67" cy="120.67" r="52.5"/>
    <circle class="cls-1" cx="120.67" cy="120.67" r="27.5"/>
    <g>
      <path class="cls-1" d="M113.55,235.33c-5.7,0-10.36-4.64-10.38-10.33l-.09-12.48c-27.42-5.21-50.92-22.27-64.34-46.75l-11.92,3.78c-1.01,.32-2.07,.49-3.15,.49-5.13,0-9.44-3.69-10.25-8.77l-7.3-46.09c-.48-3,.38-6.05,2.35-8.36,1.96-2.31,4.83-3.64,7.85-3.65l12.49-.09c5.21-27.42,22.27-50.92,46.75-64.34l-3.78-11.92c-.92-2.86-.54-6,1.05-8.58,1.59-2.59,4.23-4.34,7.23-4.82l46.09-7.3c.54-.09,1.09-.13,1.64-.13,5.7,0,10.36,4.64,10.38,10.33l.09,12.48c27.42,5.21,50.92,22.27,64.34,46.75l11.92-3.78c1.01-.32,2.07-.49,3.15-.49,5.13,0,9.44,3.69,10.25,8.77l7.3,46.09c.48,3-.38,6.05-2.35,8.36-1.96,2.31-4.83,3.64-7.85,3.65l-12.49,.09c-5.21,27.42-22.27,50.92-46.75,64.34l3.78,11.92c.92,2.86,.54,6-1.05,8.58-1.59,2.59-4.23,4.34-7.23,4.82l-46.09,7.3c-.54,.09-1.09,.13-1.64,.13h0Zm7.18-161.17c-2.44,0-4.91,.2-7.34,.58-25.32,4.01-42.66,27.88-38.65,53.2,3.6,22.73,22.89,39.23,45.87,39.23,2.44,0,4.91-.2,7.34-.58,25.32-4.01,42.66-27.88,38.65-53.2-3.6-22.73-22.89-39.23-45.87-39.23Z"/>
      <path d="M127.78,12c2.37,0,4.37,1.91,4.38,4.35l.12,17.58c29.16,3.88,54.59,22.36,67.29,48.89l16.75-5.32c.45-.14,.89-.21,1.33-.21,2.09,0,3.98,1.51,4.32,3.71l7.3,46.09c.42,2.66-1.62,5.07-4.3,5.08l-17.58,.12c-3.88,29.16-22.36,54.59-48.89,67.29l5.32,16.75c.82,2.55-.84,5.24-3.5,5.66l-46.09,7.3c-.24,.04-.47,.06-.7,.06-2.37,0-4.37-1.91-4.38-4.35l-.12-17.58c-29.16-3.88-54.59-22.36-67.29-48.89l-16.75,5.32c-.45,.14-.89,.21-1.33,.21-2.09,0-3.98-1.51-4.32-3.71l-7.3-46.09c-.42-2.66,1.62-5.07,4.3-5.08l17.58-.12c3.88-29.16,22.36-54.59,48.89-67.29l-5.32-16.75c-.82-2.55,.84-5.24,3.5-5.66l46.09-7.3c.24-.04,.47-.06,.7-.06m-7.18,161.17c2.73,0,5.49-.21,8.27-.65,28.63-4.54,48.18-31.43,43.64-60.07-4.09-25.85-26.42-44.29-51.79-44.29-2.73,0-5.49,.21-8.27,.65-28.63,4.54-48.18,31.43-43.64,60.07,4.09,25.85,26.42,44.29,51.79,44.29M127.78,0c-.86,0-1.72,.07-2.57,.2l-46.09,7.3c-4.73,.75-8.89,3.52-11.4,7.6-2.51,4.07-3.11,9.02-1.64,13.58l2.32,7.31c-10.97,6.78-20.6,15.7-28.22,26.19-7.62,10.49-13.13,22.41-16.19,34.94l-7.71,.05c-4.74,.02-9.26,2.12-12.36,5.76-3.11,3.65-4.46,8.46-3.71,13.19l7.3,46.09c1.27,8.01,8.07,13.83,16.17,13.83,1.7,0,3.38-.26,5-.78l7.31-2.32c6.78,10.97,15.7,20.6,26.19,28.22,10.49,7.62,22.41,13.13,34.94,16.19l.05,7.71c.03,8.95,7.38,16.27,16.38,16.27,.86,0,1.72-.07,2.57-.2l46.09-7.3c4.73-.75,8.89-3.52,11.4-7.6,2.51-4.07,3.11-9.02,1.64-13.58l-2.32-7.31c10.97-6.78,20.6-15.7,28.22-26.19,7.62-10.49,13.13-22.41,16.19-34.94l7.71-.05c4.74-.02,9.26-2.12,12.36-5.76,3.11-3.65,4.46-8.46,3.71-13.19l-7.3-46.09c-1.27-8.01-8.07-13.83-16.17-13.83-1.7,0-3.38,.26-5,.78l-7.31,2.32c-6.78-10.97-15.7-20.6-26.19-28.22-10.49-7.62-22.41-13.13-34.94-16.19l-.05-7.71C144.13,7.32,136.78,0,127.79,0h0Zm-7.18,161.17c-20.01,0-36.8-14.37-39.94-34.17-1.69-10.68,.88-21.39,7.24-30.14,6.36-8.75,15.75-14.51,26.43-16.2,2.12-.34,4.27-.51,6.4-.51,20.01,0,36.8,14.37,39.94,34.17,1.69,10.68-.88,21.39-7.24,30.14-6.36,8.75-15.75,14.51-26.43,16.2-2.12,.34-4.27,.51-6.4,.51h0Z"/>
    </g>
  </g>
</svg>