<?xml version="1.0" encoding="UTF-8"?>
<svg id="Layer_2" data-name="Layer 2" xmlns="http://www.w3.org/2000/svg" viewBox="0 0 226 48">
  <defs>
    <style>
      .cls-1 {
        opacity: .6;
      }
    </style>
  </defs>
  <g id="Hp">
    <g id="background">
      <rect class="cls-1" x="2" y="2" width="222" height="44" rx="14.5" ry="14.5"/>
      <path d="M209.5,4c6.9,0,12.5,5.6,12.5,12.5v15c0,6.9-5.6,12.5-12.5,12.5H16.5c-6.9,0-12.5-5.6-12.5-12.5v-15c0-6.9,5.6-12.5,12.5-12.5H209.5m0-4H16.5C7.4,0,0,7.4,0,16.5v15c0,9.1,7.4,16.5,16.5,16.5H209.5c9.1,0,16.5-7.4,16.5-16.5v-15c0-9.1-7.4-16.5-16.5-16.5h0Z"/>
    </g>
  </g>
</svg>