<?xml version="1.0" encoding="UTF-8"?>
<svg id="Layer_2" data-name="Layer 2" xmlns="http://www.w3.org/2000/svg" viewBox="0 0 145.06 145.14">
  <defs>
    <style>
      .cls-1 {
        fill: #335871;
      }

      .cls-2 {
        fill: #00c4fb;
      }
    </style>
  </defs>
  <g id="Layer_2-2" data-name="Layer 2">
    <g>
      <path class="cls-2" d="M32.4,25.82c-1.49,0-2.78-.49-3.75-1.42-.9-.87-1.37-2.12-1.31-3.52,.08-1.94,1.15-3.94,2.86-5.33C42.09,5.84,57.13,.5,72.53,.5s30.44,5.34,42.33,15.04c1.71,1.39,2.78,3.38,2.86,5.33,.06,1.41-.41,2.66-1.31,3.53-.97,.93-2.26,1.42-3.75,1.42h0c-1.65,0-3.38-.64-4.74-1.74-9.94-8.11-22.51-12.57-35.39-12.57s-25.45,4.46-35.39,12.57c-1.37,1.11-3.1,1.75-4.74,1.75Z"/>
      <path class="cls-1" d="M72.53,1c14.91,0,29.82,4.98,42.02,14.93,2.92,2.38,3.5,6.2,1.52,8.11h0c-.91,.87-2.12,1.28-3.4,1.28-1.52,0-3.12-.57-4.43-1.63-10.37-8.46-23.04-12.69-35.7-12.69s-25.33,4.23-35.7,12.69c-1.31,1.06-2.91,1.63-4.43,1.63-1.28,0-2.49-.41-3.4-1.29h0c-1.98-1.9-1.4-5.73,1.52-8.11C42.72,5.97,57.62,1,72.53,1m0-1c-15.52,0-30.67,5.38-42.65,15.15-1.82,1.48-2.96,3.61-3.04,5.7-.06,1.55,.46,2.94,1.46,3.91,1.05,1.01,2.5,1.56,4.1,1.56,1.76,0,3.6-.68,5.06-1.86,9.85-8.04,22.31-12.46,35.07-12.46s25.22,4.43,35.07,12.46c1.46,1.18,3.3,1.86,5.06,1.86,1.59,0,3.05-.56,4.1-1.56,1.01-.97,1.53-2.35,1.46-3.91-.09-2.08-1.22-4.21-3.05-5.7C103.2,5.38,88.05,0,72.53,0h0Z"/>
    </g>
    <g>
      <path class="cls-2" d="M72.53,144.64c-15.41,0-30.44-5.34-42.33-15.04-1.71-1.39-2.78-3.39-2.86-5.33-.06-1.41,.41-2.66,1.31-3.53,.97-.93,2.26-1.42,3.75-1.42,1.65,0,3.38,.63,4.75,1.74,9.94,8.11,22.51,12.57,35.39,12.57s25.45-4.46,35.39-12.57c1.37-1.11,3.1-1.75,4.75-1.75,1.48,0,2.78,.49,3.75,1.42,.9,.87,1.37,2.12,1.31,3.53-.08,1.94-1.15,3.94-2.86,5.33-11.89,9.7-26.92,15.04-42.33,15.04Z"/>
      <path class="cls-1" d="M32.4,119.82c1.52,0,3.12,.57,4.43,1.63,10.37,8.46,23.04,12.69,35.7,12.69s25.33-4.23,35.7-12.69c1.31-1.06,2.91-1.63,4.43-1.63,1.28,0,2.49,.41,3.4,1.28h0c1.98,1.9,1.4,5.73-1.52,8.11-12.2,9.95-27.11,14.93-42.02,14.93s-29.81-4.98-42.02-14.93c-2.92-2.38-3.5-6.2-1.52-8.11,.91-.88,2.12-1.29,3.4-1.28m0-1h0c-1.59,0-3.05,.56-4.1,1.56-1.01,.97-1.53,2.35-1.46,3.91,.09,2.08,1.22,4.21,3.05,5.7,11.98,9.77,27.13,15.15,42.65,15.15s30.67-5.38,42.65-15.15c1.82-1.48,2.96-3.61,3.04-5.7,.06-1.55-.46-2.94-1.46-3.91-1.05-1.01-2.5-1.56-4.1-1.56-1.76,0-3.6,.68-5.06,1.86-9.85,8.04-22.31,12.46-35.07,12.46s-25.22-4.43-35.07-12.46c-1.46-1.18-3.3-1.86-5.06-1.86h0Z"/>
    </g>
    <g>
      <path class="cls-2" d="M124,117.77c-1.31,0-2.48-.47-3.29-1.32-2-2.07-1.86-5.8,.32-8.49,16.73-20.51,16.73-50.27,0-70.78-2.21-2.73-2.35-6.39-.32-8.49,.81-.85,1.98-1.31,3.29-1.31,2.02,0,4.1,1.07,5.56,2.87,20.01,24.53,20.01,60.13,0,84.66-1.46,1.79-3.54,2.87-5.56,2.87,0,0,0,0,0,0Z"/>
      <path class="cls-1" d="M124,27.87c1.76,0,3.73,.91,5.17,2.68,19.9,24.4,19.9,59.63,0,84.03-1.44,1.77-3.42,2.68-5.17,2.68-1.14,0-2.18-.38-2.93-1.16h0c-1.91-1.98-1.6-5.42,.35-7.83,16.91-20.74,16.91-50.67,0-71.41-1.95-2.41-2.26-5.85-.35-7.83h0c.75-.78,1.79-1.16,2.93-1.16m0-1c-1.45,0-2.74,.52-3.65,1.47-2.21,2.29-2.08,6.23,.29,9.15,16.58,20.32,16.58,49.82,0,70.15-2.37,2.93-2.5,6.87-.29,9.16,.91,.95,2.21,1.47,3.65,1.47,2.17,0,4.39-1.14,5.95-3.05,20.15-24.71,20.15-60.58,0-85.29-1.55-1.91-3.78-3.05-5.95-3.05h0Z"/>
    </g>
    <g>
      <path class="cls-2" d="M21.06,117.77c-2.02,0-4.1-1.07-5.56-2.87C-4.5,90.37-4.5,54.77,15.5,30.24c1.46-1.79,3.54-2.87,5.56-2.87,1.31,0,2.48,.47,3.29,1.32,2.03,2.11,1.89,5.76-.32,8.49-16.73,20.51-16.73,50.27,0,70.78,2.21,2.73,2.35,6.38,.32,8.49-.81,.85-1.98,1.32-3.29,1.32h0Z"/>
      <path class="cls-1" d="M21.06,27.87c1.14,0,2.18,.38,2.93,1.16,1.91,1.98,1.6,5.42-.35,7.83-16.91,20.74-16.91,50.67,0,71.41,1.95,2.41,2.26,5.85,.35,7.83-.75,.78-1.79,1.16-2.93,1.16-1.76,0-3.73-.91-5.17-2.68-19.9-24.4-19.9-59.63,0-84.03,1.44-1.77,3.42-2.68,5.17-2.68m0-1c-2.17,0-4.39,1.14-5.95,3.05-20.15,24.71-20.15,60.58,0,85.29,1.55,1.91,3.78,3.05,5.95,3.05,1.45,0,2.74-.52,3.65-1.47,2.21-2.29,2.08-6.23-.29-9.15-16.58-20.32-16.58-49.82,0-70.15,2.37-2.93,2.5-6.87,.29-9.16-.91-.95-2.21-1.47-3.65-1.47h0Z"/>
    </g>
  </g>
</svg>