<?xml version="1.0" encoding="UTF-8"?>
<svg id="Layer_2" data-name="Layer 2" xmlns="http://www.w3.org/2000/svg" viewBox="0 0 253.51 206.2">
  <defs>
    <style>
      .cls-1 {
        fill: #fff;
      }
    </style>
  </defs>
  <g id="Layer_1-2" data-name="Layer 1">
    <g>
      <path class="cls-1" d="M141.32,135.65l-7.19-7.19v-20.36h-14.9v10.83h5.29v16.72h-38.38v-16.72h7.1v-31.8h-7.1v-16.81h64.2l10.83,10.83v13.51l-9.62,7.19,9.62,7.28v12.13h6.07v14.38h-25.91Zm-7.19-48.52h-14.9v10.83h14.9v-10.83Z"/>
      <path class="cls-1" d="M161.19,16.89V51.02l-14.47,14.38h-38.99l-14.38-14.38V16.89h-7.11V.08h39.33V16.89h-6.24v31.8h22.01V16.89h-5.37V.08h31.36V16.89h-6.15Z"/>
      <path class="cls-1" d="M243.29,39.6h-37.78v9.01h7.1v16.72h-40.2v-16.72h7.1V16.81h-7.1V0h69.66l11.44,11.44V29.37l-10.22,10.23Zm-15.6-22.79h-22.18v11.44h22.18v-11.44Z"/>
      <path class="cls-1" d="M238.87,135.65h-49.39l-17.07-16.72v-31.88l17.07-16.72h38.91l4.85,6.07,4.76-6.07h15.51v27.49h-20.27v-10.76h-34.22v31.88h34.22v-10.98h20.27v13.41l-14.64,14.29Z"/>
      <path class="cls-1" d="M160.15,206.2H86.13v-16.72h7.1v-31.8h-7.1v-16.81h40.2v16.81h-7.1v31.8h27.84v-21.09h20.27v30.02l-7.19,7.8Z"/>
      <path class="cls-1" d="M246.32,206.2h-74.02v-16.72h7.1v-31.8h-7.1v-16.81h40.2v16.81h-7.1v31.8h27.84v-21.09h20.27v30.02l-7.19,7.8Z"/>
      <path class="cls-1" d="M68.53,65.41H23.22l-5.37-5.72-4.76,5.72H0v-19.93H18.28v5.63H52.41v-9.53H11.78L0,30.75V14.63L13.51,.08H54.23l5.37,5.72L64.37,.08h13.08V20h-18.28v-5.63H28.24v9.53h39.59l13.34,12.56v15.25l-12.65,13.69Z"/>
      <path class="cls-1" d="M73.91,135.65H0v-16.72H7.1v-31.8H0v-16.81H73.91l7.19,7.88v22.62h-20.27v-13.69h-27.73v9.79h11.96v12.13h-11.96v9.88h27.73v-13.69h20.27v22.62l-7.19,7.8Z"/>
      <path class="cls-1" d="M73.91,206.2H0v-16.72H7.1v-31.8H0v-16.81H73.91l7.19,7.89v22.61h-20.27v-13.69h-27.73v9.79h11.96v12.13h-11.96v9.88h27.73v-13.69h20.27v22.62l-7.19,7.8Z"/>
    </g>
  </g>
</svg>