<?xml version="1.0" encoding="UTF-8"?>
<svg id="_레이어_2" data-name="레이어 2" xmlns="http://www.w3.org/2000/svg" viewBox="0 0 462 274.28">
  <defs>
    <style>
      .cls-1 {
        fill: #fcf668;
      }

      .cls-2 {
        fill: #fbcd21;
      }

      .cls-3 {
        fill: #f7ac26;
      }

      .cls-4 {
        fill: #fef325;
      }

      .cls-5 {
        fill: #fbf9e0;
      }

      .cls-6 {
        fill: #e76a24;
      }

      .cls-7 {
        fill: #e56337;
      }

      .cls-8 {
        fill: #fbdc14;
      }
    </style>
  </defs>
  <g id="_레이어_3" data-name="레이어 3">
    <g>
      <path d="M311.45,14.64c-.52,8.09-7.23,14.5-15.45,14.5s-14.93-6.41-15.45-14.5H2v245H280.55c-.02-.33-.05-.66-.05-1,0-8.56,6.94-15.5,15.5-15.5s15.5,6.94,15.5,15.5c0,.34-.03,.67-.05,1h150.55V14.64h-150.55Zm-15.45,179c-8.56,0-15.5-6.94-15.5-15.5s6.94-15.5,15.5-15.5,15.5,6.94,15.5,15.5-6.94,15.5-15.5,15.5Zm0-82c-8.56,0-15.5-6.94-15.5-15.5s6.94-15.5,15.5-15.5,15.5,6.94,15.5,15.5-6.94,15.5-15.5,15.5Z"/>
      <path class="cls-4" d="M312.81,34.64c-3.44,5.7-9.67,9.52-16.81,9.52s-13.37-3.82-16.81-9.52H2V239.64H283.33c3.42-2.89,7.84-4.64,12.67-4.64s9.25,1.75,12.67,4.64h153.33V34.64h-149.19Zm-16.81,159c-8.56,0-15.5-6.94-15.5-15.5s6.94-15.5,15.5-15.5,15.5,6.94,15.5,15.5-6.94,15.5-15.5,15.5Zm0-82c-8.56,0-15.5-6.94-15.5-15.5s6.94-15.5,15.5-15.5,15.5,6.94,15.5,15.5-6.94,15.5-15.5,15.5Z"/>
      <path class="cls-8" d="M323.98,176.19c.01,.32,.02,.63,.02,.95,0,15.19-12.31,27.5-27.5,27.5s-27.5-12.31-27.5-27.5c0-4.69,1.18-9.11,3.25-12.97L9,103.02V239.64H282.02c2.22-5.84,7.86-10,14.48-10s12.26,4.16,14.48,10h141.02v-33.71l-128.02-29.74Z"/>
      <path class="cls-6" d="M296,227.5c-9.98,0-18.42,5.11-21.18,12.14H2v10H277.02c2.21-8.42,9.86-14.64,18.98-14.64s16.76,6.22,18.98,14.64h147.02v-10h-144.82c-2.76-7.03-11.2-12.14-21.18-12.14Z"/>
      <path class="cls-5" d="M314.98,24.64c-2.21,8.42-9.86,14.64-18.98,14.64s-16.76-6.22-18.98-14.64H2v10H274.58c2.49,8.43,11.14,14.64,21.42,14.64s18.92-6.22,21.42-14.64h144.58v-10h-147.02Z"/>
      <rect y="14.64" width="10" height="245"/>
      <rect x="452" y="14.64" width="10" height="245"/>
      <g>
        <path class="cls-1" d="M309.75,185.29c-2.58,4.96-7.76,8.35-13.75,8.35s-10.85-3.19-13.51-7.91l-11.97,6.91c5.35,9.27,15.28,15,25.98,15s20.63-5.73,25.98-15l-12.74-7.35Z"/>
        <path class="cls-3" d="M296.5,147.64c-16.46,0-30,13.54-30,30,0,5.27,1.39,10.44,4.02,15l11.97-6.91c-1.26-2.24-1.99-4.83-1.99-7.59,0-8.56,6.94-15.5,15.5-15.5s15.5,6.94,15.5,15.5c0,2.58-.64,5.01-1.75,7.15l12.74,7.35c2.63-4.56,4.02-9.73,4.02-15,0-16.46-13.54-30-30-30Z"/>
        <path d="M296,159.14c-10.49,0-19,8.51-19,19s8.51,19,19,19,19-8.51,19-19-8.51-19-19-19Zm0,34.5c-8.56,0-15.5-6.94-15.5-15.5s6.94-15.5,15.5-15.5,15.5,6.94,15.5,15.5-6.94,15.5-15.5,15.5Z"/>
      </g>
      <g>
        <path class="cls-5" d="M309.75,103.29c-2.58,4.96-7.76,8.35-13.75,8.35s-10.85-3.19-13.51-7.91l-11.97,6.91c5.35,9.27,15.28,15,25.98,15s20.63-5.73,25.98-15l-12.74-7.35Z"/>
        <path class="cls-2" d="M296.5,65.64c-16.46,0-30,13.54-30,30,0,5.27,1.39,10.44,4.02,15l11.97-6.91c-1.26-2.24-1.99-4.83-1.99-7.59,0-8.56,6.94-15.5,15.5-15.5s15.5,6.94,15.5,15.5c0,2.58-.64,5.01-1.75,7.15l12.74,7.35c2.63-4.56,4.02-9.73,4.02-15,0-16.46-13.54-30-30-30Z"/>
        <path d="M296,77.14c-10.49,0-19,8.51-19,19s8.51,19,19,19,19-8.51,19-19-8.51-19-19-19Zm0,34.5c-8.56,0-15.5-6.94-15.5-15.5s6.94-15.5,15.5-15.5,15.5,6.94,15.5,15.5-6.94,15.5-15.5,15.5Z"/>
      </g>
      <g>
        <circle cx="176.25" cy="139.32" r="35"/>
        <circle cx="69.25" cy="139.32" r="35"/>
        <polygon points="122.79 148.32 103.45 181.82 142.13 181.82 122.79 148.32"/>
        <rect x="122.6" y="91.18" width="40.31" height="16.26" rx="8.13" ry="8.13" transform="translate(-28.42 130.03) rotate(-45)"/>
        <rect x="78.3" y="91.01" width="40.31" height="16.26" rx="8.13" ry="8.13" transform="translate(98.94 -40.58) rotate(45)"/>
      </g>
      <g>
        <rect x="369" y="39.27" width="77" height="19"/>
        <rect class="cls-7" x="369" y="221.27" width="77" height="11"/>
        <rect x="369" y="192.27" width="77" height="20"/>
        <rect x="369" y="164.27" width="77" height="18"/>
        <rect x="369" y="144.27" width="77" height="11"/>
        <rect x="369" y="97.27" width="77" height="38"/>
        <rect x="369" y="68.27" width="77" height="9"/>
      </g>
    </g>
  </g>
</svg>