<?xml version="1.0" encoding="UTF-8"?>
<svg id="_레이어_2" data-name="레이어 2" xmlns="http://www.w3.org/2000/svg" viewBox="0 0 839.25 260">
  <defs>
    <style>
      .cls-1 {
        fill: #6b5c85;
      }

      .cls-2 {
        opacity: .5;
      }

      .cls-3 {
        fill: #252b3c;
      }

      .cls-4 {
        fill: #353c50;
      }

      .cls-5 {
        fill: #78699f;
      }
    </style>
  </defs>
  <g id="_레이어_3" data-name="레이어 3">
    <path d="M831.86,0H27.86c-4.42,0-8.28,3.58-8.63,8L.81,242c-.35,4.42,2.95,8,7.37,8H812.18c4.42,0,8.28-3.58,8.63-8l18.42-234c.35-4.42-2.95-8-7.37-8Z"/>
    <path class="cls-2" d="M831.07,10H27.07c-4.42,0-8.28,3.58-8.63,8L.03,252c-.35,4.42,2.95,8,7.37,8H811.4c4.42,0,8.28-3.58,8.63-8l18.42-234c.35-4.42-2.95-8-7.37-8Z"/>
    <path class="cls-3" d="M802.97,240H18.97c-4.42,0-7.72-3.58-7.37-8L25.92,50c.35-4.42,4.21-8,8.63-8H818.55c4.42,0,7.72,3.58,7.37,8l-14.32,182c-.35,4.42-4.21,8-8.63,8Z"/>
    <path class="cls-1" d="M805.49,208H21.49c-4.42,0-7.72-3.58-7.37-8L28.44,18c.35-4.42,4.21-8,8.63-8H821.07c4.42,0,7.72,3.58,7.37,8l-14.32,182c-.35,4.42-4.21,8-8.63,8Z"/>
    <polygon class="cls-4" points="812.23 224 12.23 224 27.81 26 827.81 26 812.23 224"/>
    <path class="cls-5" d="M799.07,10h22c4.42,0,7.72,3.58,7.37,8l-1.73,22"/>
  </g>
</svg>