<?xml version="1.0" encoding="UTF-8"?>
<svg id="_레이어_2" data-name="레이어 2" xmlns="http://www.w3.org/2000/svg" viewBox="0 0 648.33 140">
  <defs>
    <style>
      .cls-1 {
        fill: #283043;
      }

      .cls-2, .cls-3 {
        fill: #202337;
      }

      .cls-3 {
        stroke: #000;
        stroke-miterlimit: 10;
        stroke-width: 5px;
      }
    </style>
  </defs>
  <g id="_레이어_3" data-name="레이어 3">
    <path d="M571.4,120H7.4c-4.42,0-7.72-3.58-7.37-8L6.64,28c.35-4.42,4.21-8,8.63-8H579.27c4.42,0,7.72,3.58,7.37,8l-6.61,84c-.35,4.42-4.21,8-8.63,8Z"/>
    <path class="cls-2" d="M566.79,115H12.79c-4.42,0-7.72-3.58-7.37-8L11.24,33c.35-4.42,4.21-8,8.63-8H573.87c4.42,0,7.72,3.58,7.37,8l-5.82,74c-.35,4.42-4.21,8-8.63,8Z"/>
    <path class="cls-1" d="M566.79,115H12.79c-4.42,0-7.72-3.58-7.37-8l2.12-27H569.54c4.42,0,7.72,3.58,7.37,8l-1.5,19c-.35,4.42-4.21,8-8.63,8Z"/>
    <circle class="cls-3" cx="578.33" cy="70" r="67.5"/>
    <ellipse class="cls-1" cx="578.33" cy="75" rx="62.5" ry="60"/>
  </g>
</svg>