<?xml version="1.0" encoding="UTF-8"?>
<svg id="Layer_2" data-name="Layer 2" xmlns="http://www.w3.org/2000/svg" viewBox="0 0 591.96 100">
  <defs>
    <style>
      .cls-1 {
        fill: #380022;
      }

      .cls-2 {
        fill: #5e0030;
      }
    </style>
  </defs>
  <g id="_레이어_3" data-name="레이어 3">
    <path d="M570.96,100H6.96c-4.42,0-7.5-3.58-6.88-8L11.89,8C12.51,3.58,16.59,0,21.01,0H585.01c4.42,0,7.5,3.58,6.88,8l-11.81,84c-.62,4.42-4.71,8-9.12,8Z"/>
    <path class="cls-1" d="M566.66,95H12.66c-4.42,0-7.5-3.58-6.88-8L16.18,13c.62-4.42,4.71-8,9.12-8H579.31c4.42,0,7.5,3.58,6.88,8l-10.4,74c-.62,4.42-4.71,8-9.12,8Z"/>
    <path class="cls-2" d="M566.66,95H12.66c-4.42,0-7.5-3.58-6.88-8l3.79-27H579.58l-3.79,27c-.62,4.42-4.71,8-9.12,8Z"/>
  </g>
</svg>