<?xml version="1.0" encoding="UTF-8"?>
<svg id="Layer_2" data-name="Layer 2" xmlns="http://www.w3.org/2000/svg" viewBox="0 0 235 235">
  <defs>
    <style>
      .cls-1 {
        fill: #fff;
      }

      .cls-2 {
        fill: #ff5de6;
      }

      .cls-3 {
        fill: #ff27d4;
      }
    </style>
  </defs>
  <g id="_레이어_3" data-name="레이어 3">
    <g>
      <path class="cls-3" d="M117.5,232.5c-30.72,0-59.6-11.96-81.32-33.68C14.46,177.1,2.5,148.22,2.5,117.5S14.46,57.9,36.18,36.18C57.9,14.46,86.78,2.5,117.5,2.5s59.6,11.96,81.32,33.68,33.68,50.6,33.68,81.32-11.96,59.6-33.68,81.32-50.6,33.68-81.32,33.68Z"/>
      <path d="M117.5,5c28.79,0,57.58,10.98,79.55,32.95,43.93,43.93,43.93,115.17,0,159.1-21.97,21.97-50.76,32.95-79.55,32.95s-57.58-10.98-79.55-32.95C-5.98,153.12-5.98,81.88,37.95,37.95,59.92,15.98,88.71,5,117.5,5m0-5h0c-31.39,0-60.89,12.22-83.09,34.42C12.22,56.61,0,86.11,0,117.5s12.22,60.89,34.41,83.08c22.19,22.19,51.7,34.42,83.09,34.42s60.89-12.22,83.09-34.42c22.19-22.19,34.42-51.7,34.42-83.08s-12.22-60.89-34.42-83.08C178.39,12.22,148.89,0,117.5,0h0Z"/>
    </g>
    <ellipse class="cls-2" cx="165.87" cy="175.32" rx="44.19" ry="37.59" transform="translate(-75.39 168.63) rotate(-45)"/>
    <ellipse class="cls-2" cx="80.61" cy="80.66" rx="75" ry="60.63" transform="translate(-33.43 80.63) rotate(-45)"/>
    <path d="M184.22,139.6l-91.58,65.33c-1.91,1.36-5.61-.6-5.29-3.88l5.9-61.33c.14-1.44-.54-2.8-1.77-3.52l-44.43-26.17c-2.37-1.4-2.39-4.8-.04-6.48L146.89,32.29c2.95-2.1,6.82,.23,6.1,3.68l-13.82,66.57c-.33,1.58,.35,3.14,1.71,3.94l44.17,26.02c2.37,1.4,2.39,4.8-.84,7.1Z"/>
    <path class="cls-1" d="M178.73,133.61l-79.24,56.52c-2.41,1.72-5.72-.14-5.52-3.08l3.71-55.03c.09-1.29-.55-2.53-1.65-3.21l-39.86-24.63c-2.13-1.32-2.23-4.37-.19-5.83l86.43-61.65c2.55-1.82,6.03,.37,5.48,3.46l-10.57,59.54c-.25,1.41,.39,2.83,1.61,3.59l39.63,24.49c2.13,1.32,2.23,4.37,.19,5.83Z"/>
    <ellipse class="cls-1" cx="45.04" cy="67.48" rx="8.68" ry="25.48" transform="translate(-12.99 10.78) rotate(-11.94)"/>
    <ellipse class="cls-1" cx="45.04" cy="67.48" rx="25.48" ry="8.68" transform="translate(-12.99 10.78) rotate(-11.94)"/>
    <circle class="cls-1" cx="45.11" cy="67.73" r="13.5"/>
  </g>
</svg>