<?xml version="1.0" encoding="UTF-8"?>
<svg id="_레이어_2" data-name="레이어 2" xmlns="http://www.w3.org/2000/svg" viewBox="0 0 1416.66 410">
  <defs>
    <style>
      .cls-1 {
        fill: #6b5c85;
      }

      .cls-2 {
        opacity: .5;
      }

      .cls-3 {
        fill: #252b3c;
      }

      .cls-4 {
        fill: #353c50;
      }

      .cls-5 {
        fill: #78699f;
      }
    </style>
  </defs>
  <g id="_레이어_3" data-name="레이어 3">
    <path class="cls-2" d="M1407.88,10H38.88c-4.42,0-8.28,3.58-8.63,8L.03,402c-.35,4.42,2.95,8,7.37,8H1376.4c4.42,0,8.28-3.58,8.63-8l30.22-384c.35-4.42-2.95-8-7.37-8Z"/>
    <path d="M1416.66,0H39.66c-4.42,0-8.28,3.58-8.63,8L.81,392c-.35,4.42,2.95,8,7.37,8H1377.18c4.42,0,8.28-3.58,8.63-8L1416.66,0Z"/>
    <path class="cls-3" d="M1372.97,390H13.97c-4.42,0-7.72-3.58-7.37-8L26.59,128c.35-4.42,4.21-8,8.63-8H1394.22c4.42,0,7.72,3.58,7.37,8l-19.99,254c-.35,4.42-4.21,8-8.63,8Z"/>
    <path class="cls-1" d="M1375.49,358H16.49c-4.42,0-7.72-3.58-7.37-8L29.11,96c.35-4.42,4.21-8,8.63-8H1396.74c4.42,0,7.72,3.58,7.37,8l-19.99,254c-.35,4.42-4.21,8-8.63,8Z"/>
    <polygon class="cls-4" points="1382.23 374 7.23 374 28.48 104 1403.48 104 1382.23 374"/>
    <path class="cls-5" d="M1374.74,88h22c4.42,0,7.72,3.58,7.37,8l-1.73,22"/>
  </g>
</svg>