<?xml version="1.0" encoding="UTF-8"?>
<svg id="_레이어_2" data-name="레이어 2" xmlns="http://www.w3.org/2000/svg" viewBox="0 0 242.01 178">
  <defs>
    <style>
      .cls-1 {
        fill: #6b5c85;
      }

      .cls-2 {
        opacity: .5;
      }

      .cls-3 {
        fill: #252b3c;
      }

      .cls-4 {
        fill: #353c50;
      }

      .cls-5 {
        fill: #78699f;
      }
    </style>
  </defs>
  <g id="_레이어_3" data-name="레이어 3">
    <path d="M234.62,0H20.62c-4.42,0-8.28,3.58-8.63,8L.03,160c-.35,4.42,2.95,8,7.37,8H221.4c4.42,0,8.28-3.58,8.63-8L241.99,8c.35-4.42-2.95-8-7.37-8Z"/>
    <path class="cls-2" d="M228.83,10H24.83c-4.42,0-8.28,3.58-8.63,8L4.24,170c-.35,4.42,2.95,8,7.37,8H215.61c4.42,0,8.28-3.58,8.63-8l11.96-152c.35-4.42-2.95-8-7.37-8Z"/>
    <path class="cls-3" d="M217.18,158H13.18c-4.42,0-7.72-3.58-7.37-8L14.63,38c.35-4.42,4.21-8,8.63-8H227.26c4.42,0,7.72,3.58,7.37,8l-8.81,112c-.35,4.42-4.21,8-8.63,8Z"/>
    <path class="cls-1" d="M218.76,138H14.76c-4.42,0-7.72-3.58-7.37-8L16.2,18c.35-4.42,4.21-8,8.63-8H228.83c4.42,0,7.72,3.58,7.37,8l-8.81,112c-.35,4.42-4.21,8-8.63,8Z"/>
    <polygon class="cls-4" points="225.97 148 5.97 148 16.04 20 236.04 20 225.97 148"/>
    <path class="cls-5" d="M220.83,10h8c4.42,0,7.72,3.58,7.37,8l-.63,8"/>
  </g>
</svg>