<?xml version="1.0" encoding="UTF-8"?>
<svg id="_레이어_2" data-name="레이어 2" xmlns="http://www.w3.org/2000/svg" viewBox="0 0 971.66 410">
  <defs>
    <style>
      .cls-1 {
        opacity: .5;
      }

      .cls-2 {
        fill: #f7eb42;
      }

      .cls-3 {
        fill: #a3522a;
      }

      .cls-4 {
        fill: #fefb9b;
      }

      .cls-5 {
        fill: #ecc307;
      }
    </style>
  </defs>
  <g id="_레이어_3" data-name="레이어 3">
    <path class="cls-1" d="M962.88,10H38.88c-4.42,0-8.28,3.58-8.63,8L.03,402c-.35,4.42,2.95,8,7.37,8H931.4c4.42,0,8.28-3.58,8.63-8l30.22-384c.35-4.42-2.95-8-7.37-8Z"/>
    <path d="M971.66,0H39.66c-4.42,0-8.28,3.58-8.63,8L.81,392c-.35,4.42,2.95,8,7.37,8H932.18c4.42,0,8.28-3.58,8.63-8L971.66,0Z"/>
    <path class="cls-3" d="M927.97,390H13.97c-4.42,0-7.72-3.58-7.37-8L26.59,128c.35-4.42,4.21-8,8.63-8H949.22c4.42,0,7.72,3.58,7.37,8l-19.99,254c-.35,4.42-4.21,8-8.63,8Z"/>
    <path class="cls-2" d="M930.49,358H16.49c-4.42,0-7.72-3.58-7.37-8L29.11,96c.35-4.42,4.21-8,8.63-8H951.74c4.42,0,7.72,3.58,7.37,8l-19.99,254c-.35,4.42-4.21,8-8.63,8Z"/>
    <polygon class="cls-5" points="937.23 374 7.23 374 28.48 104 958.48 104 937.23 374"/>
    <path class="cls-4" d="M929.74,88h22c4.42,0,7.72,3.58,7.37,8l-1.73,22"/>
  </g>
</svg>