<?xml version="1.0" encoding="UTF-8"?>
<svg id="_레이어_2" data-name="레이어 2" xmlns="http://www.w3.org/2000/svg" viewBox="0 0 361.43 290">
  <defs>
    <style>
      .cls-1 {
        fill: #6b5c85;
      }

      .cls-2 {
        opacity: .5;
      }

      .cls-3 {
        fill: #252b3c;
      }

      .cls-4 {
        fill: #353c50;
      }

      .cls-5 {
        fill: #78699f;
      }
    </style>
  </defs>
  <g id="_레이어_3" data-name="레이어 3">
    <path d="M361.43,0H29.43c-4.42,0-8.28,3.58-8.63,8L.03,272c-.35,4.42,2.95,8,7.37,8H331.4c4.42,0,8.28-3.58,8.63-8L361.43,0Z"/>
    <path class="cls-2" d="M347.64,10H33.64c-4.42,0-8.28,3.58-8.63,8L4.24,282c-.35,4.42,2.95,8,7.37,8H325.61c4.42,0,8.28-3.58,8.63-8L355.02,18c.35-4.42-2.95-8-7.37-8Z"/>
    <path class="cls-3" d="M327.18,270H13.18c-4.42,0-7.72-3.58-7.37-8L22.5,50c.35-4.42,4.21-8,8.63-8H345.13c4.42,0,7.72,3.58,7.37,8l-16.68,212c-.35,4.42-4.21,8-8.63,8Z"/>
    <path class="cls-1" d="M329.7,238H15.7c-4.42,0-7.72-3.58-7.37-8L25.02,18c.35-4.42,4.21-8,8.63-8H347.64c4.42,0,7.72,3.58,7.37,8l-16.68,212c-.35,4.42-4.21,8-8.63,8Z"/>
    <polygon class="cls-4" points="336.44 254 6.44 254 24.39 26 354.39 26 336.44 254"/>
    <path class="cls-5" d="M325.64,10h22c4.42,0,7.72,3.58,7.37,8l-1.73,22"/>
  </g>
</svg>